<svg width="336" height="71" viewBox="0 0 336 71" fill="none" xmlns="http://www.w3.org/2000/svg">
<path d="M11.0008 25.485C11.0008 33.3328 11.1606 36.7485 11.8828 37.7102C12.523 38.5641 13.5646 38.9379 16.6907 38.9379C18.8135 38.9379 20.5772 38.8847 21.5397 37.3364C22.0598 36.4825 22.4611 35.147 22.5798 34.1322C22.6208 33.7052 22.7013 33.4392 22.9416 33.4392C23.1423 33.4392 23.1819 33.652 23.1819 34.2399C23.1819 34.8264 22.9021 38.0308 22.5798 39.5791C22.3 40.8068 22.1799 41.0195 20.0558 41.0195C14.2867 41.0195 11.6411 40.7003 9.31763 40.7003C8.95726 40.7003 6.59287 40.86 5.39152 40.86C4.95063 40.86 4.75129 40.7535 4.75129 40.433C4.75129 40.2733 4.83055 40.1124 5.0707 40.1124C5.43108 40.1124 5.91307 40.006 6.27205 39.8983C7.07472 39.6854 7.27406 38.5109 7.43509 36.9626C7.63583 34.72 7.63583 30.5022 7.63583 25.3773V15.9827C7.63583 7.6534 7.63583 6.15835 7.55531 4.45043C7.47479 2.6362 7.15398 1.78091 5.83255 1.40711C5.51174 1.30067 4.83055 1.24759 4.47003 1.24759C4.31039 1.24759 4.14936 1.14115 4.14936 0.927017C4.14936 0.60644 4.34995 0.5 4.79085 0.5C6.59287 0.5 9.11703 0.65966 9.31763 0.65966C9.51837 0.65966 12.4439 0.5 13.6451 0.5C14.0861 0.5 14.2867 0.60644 14.2867 0.927017C14.2867 1.14115 14.1271 1.24759 13.9659 1.24759C13.686 1.24759 13.1251 1.30067 12.6445 1.40711C11.4814 1.67447 11.1606 2.58298 11.0813 4.45043C11.0008 6.15835 11.0008 7.6534 11.0008 15.9827V25.485Z" fill="#E59F4B"/>
<path d="M30.6013 28.1628C30.6013 32.3574 30.6013 35.8073 30.7652 37.6419C30.8634 38.9093 31.06 39.8696 32.043 40.0442C32.503 40.1315 33.2238 40.2188 33.5186 40.2188C33.7151 40.2188 33.7807 40.3497 33.7807 40.482C33.7807 40.7003 33.6169 40.8312 33.2565 40.8312C31.4532 40.8312 29.3877 40.7003 29.224 40.7003C29.0602 40.7003 26.9946 40.8312 26.0118 40.8312C25.6514 40.8312 25.4876 40.7427 25.4876 40.482C25.4876 40.3497 25.5517 40.2188 25.7497 40.2188C26.0445 40.2188 26.4377 40.1315 26.7325 40.0442C27.3879 39.8696 27.5517 38.9093 27.6841 37.6419C27.8479 35.8073 27.8479 32.3574 27.8479 28.1628V20.4761C27.8479 13.6624 27.8479 12.4401 27.781 11.0419C27.7155 9.55633 27.3879 8.81432 26.6671 8.59599C26.3066 8.46371 25.8808 8.42139 25.6514 8.42139C25.5203 8.42139 25.3879 8.33269 25.3879 8.15948C25.3879 7.89617 25.5517 7.80887 25.9135 7.80887C26.9946 7.80887 29.0602 7.94129 29.224 7.94129C29.3877 7.94129 31.4532 7.80887 32.4361 7.80887C32.7978 7.80887 32.9617 7.89617 32.9617 8.15948C32.9617 8.33269 32.8293 8.42139 32.6982 8.42139C32.4688 8.42139 32.2722 8.46371 31.8792 8.55241C30.9946 8.7706 30.7325 9.51275 30.6655 11.0419C30.6013 12.4401 30.6013 13.6624 30.6013 20.4761V28.1628Z" fill="#E59F4B"/>
<path d="M40.6965 36.7253C37.5171 32.9249 36.7308 27.9458 36.7308 23.795C36.7308 20.8688 37.4843 15.7589 40.4017 11.8712C42.3688 9.25084 45.3516 7.19775 50.3998 7.19775C51.7103 7.19775 53.5464 7.32877 55.1532 7.72157C56.3981 8.0272 57.4479 8.2905 58.4964 8.37641C58.8567 8.42139 58.9223 8.59599 58.9223 8.8579C58.9223 9.20712 58.824 9.73093 58.7585 11.3038C58.6929 12.7456 58.6929 15.1478 58.6602 15.8026C58.6273 16.4573 58.5619 16.7192 58.3652 16.7192C58.136 16.7192 58.1031 16.4137 58.1031 15.8026C58.1031 14.0989 57.5789 12.3091 56.7258 11.3474C55.5791 10.0366 53.0549 8.8579 50.1704 8.8579C45.8102 8.8579 43.7776 10.5616 42.6309 12.0458C40.2378 15.1042 39.6794 18.9905 39.6794 23.4458C39.6794 31.7886 44.4997 39.4331 51.5138 39.4331C53.9736 39.4331 55.9066 39.0402 57.2185 37.2491C57.9066 36.2874 58.3325 34.3667 58.4308 33.5796C58.4964 33.0995 58.5619 32.9249 58.7585 32.9249C58.9223 32.9249 58.9877 33.2304 58.9877 33.5796C58.9877 33.8866 58.5946 37.6856 58.267 39.1712C58.0704 40.0005 58.0049 40.0878 57.4151 40.437C56.1033 41.1354 53.6119 41.4423 51.5138 41.4423C46.5965 41.4423 43.2861 39.8259 40.6965 36.7253Z" fill="#E59F4B"/>
<path d="M64.3978 20.4761C64.3978 13.6624 64.3978 12.4401 64.3309 11.0419C64.2667 9.55633 64.0046 8.8579 62.9221 8.55241C62.66 8.46371 62.1031 8.42139 61.8081 8.42139C61.6771 8.42139 61.5447 8.33269 61.5447 8.15948C61.5447 7.89617 61.7084 7.80887 62.0702 7.80887C63.5446 7.80887 65.479 7.94129 65.6755 7.94129C65.9705 7.94129 67.872 7.80887 68.8549 7.80887C69.2166 7.80887 69.3805 7.89617 69.3805 8.15948C69.3805 8.33269 69.2495 8.42139 69.1184 8.42139C68.8877 8.42139 68.6912 8.46371 68.2979 8.55241C67.4134 8.7706 67.1513 9.51275 67.0857 11.0419C67.0201 12.4401 67.0201 13.6624 67.0201 20.4761V23.0965H67.1513C67.7082 22.2671 73.6423 14.2298 74.8219 12.5274C75.7392 11.2601 76.5925 10.1239 76.5925 9.38172C76.5925 8.8579 76.4286 8.59599 76.1651 8.46371C76.0013 8.37641 75.8703 8.2905 75.8703 8.1145C75.8703 7.89617 76.0341 7.80887 76.2648 7.80887C76.9187 7.80887 77.9357 7.94129 78.722 7.94129C78.8872 7.94129 81.0496 7.80887 81.87 7.80887C82.2304 7.80887 82.3615 7.89617 82.3615 8.1145C82.3615 8.33269 82.296 8.42139 82.0325 8.42139C81.5424 8.42139 80.8531 8.63972 80.1978 9.03251C78.8531 9.81824 78.1324 10.9109 76.6566 12.7893C75.8376 13.837 70.1341 21.2632 69.446 22.3544C70.2979 23.6216 77.1167 33.0122 78.4599 34.6724C81.2135 38.0784 81.7704 38.7769 83.3444 39.6513C84.1975 40.1315 85.1477 40.2188 85.3771 40.2188C85.6063 40.2188 85.803 40.3061 85.803 40.482C85.803 40.7003 85.6392 40.8312 85.0821 40.8312H83.41C82.4925 40.8312 81.87 40.8312 81.1479 40.7427C79.41 40.5243 78.591 39.564 77.1822 38.0784C75.7065 36.4634 68.7566 26.4604 67.184 23.8835H67.0201V28.1628C67.0201 32.3574 67.0201 35.8073 67.184 37.6419C67.2822 38.9093 67.4789 39.8696 68.4618 40.0442C68.9218 40.1315 69.446 40.2188 69.7408 40.2188C69.9375 40.2188 70.0029 40.3497 70.0029 40.482C70.0029 40.7003 69.8391 40.8312 69.4787 40.8312C67.872 40.8312 65.9705 40.7003 65.7084 40.7003C65.4463 40.7003 63.5446 40.8312 62.5617 40.8312C62.2013 40.8312 62.0375 40.7426 62.0375 40.482C62.0375 40.3497 62.1031 40.2188 62.2996 40.2188C62.5944 40.2188 62.9876 40.1315 63.2825 40.0442C63.939 39.8696 64.1029 38.9093 64.234 37.6419C64.3978 35.8073 64.3978 32.3574 64.3978 28.1628V20.4761Z" fill="#E59F4B"/>
<path d="M90.7529 22.3066C91.3113 22.3066 91.7372 22.3927 91.7372 22.7431C91.7372 23.267 91.1147 23.398 90.5891 23.4853C89.7045 23.7035 83.9027 24.7075 82.7887 25.1017C82.1649 25.32 81.6079 25.7566 81.4441 25.7566C81.2476 25.7566 81.182 25.4947 81.2803 25.1017L81.7718 22.6558C81.8373 22.3489 81.9683 22.3066 82.4925 22.3066H90.7529Z" fill="#E59F4B"/>
<path d="M123.053 33.4923H123.214C124.295 28.5801 127.981 13.0989 129.385 6.26605C129.785 4.29091 129.824 3.54331 129.824 2.84894C129.824 1.88861 129.385 1.24759 127.54 1.24759C127.341 1.24759 127.18 1.08654 127.18 0.873797C127.18 0.60644 127.381 0.5 127.863 0.5C129.905 0.5 131.588 0.65966 131.948 0.65966C132.23 0.65966 133.952 0.5 135.193 0.5C135.555 0.5 135.756 0.60644 135.756 0.820577C135.756 1.08654 135.634 1.24759 135.394 1.24759C135.234 1.24759 134.472 1.30067 134.031 1.51355C132.83 2.10149 132.189 4.34273 131.427 7.2796C129.664 14.0592 125.617 31.0369 124.055 37.0159C123.014 40.9663 122.813 41.6074 122.372 41.6074C121.972 41.6074 121.732 40.9131 121.171 38.8315L113.317 9.14845H113.237C111.795 14.2735 106.304 33.8129 104.863 38.7769C104.221 41.0195 104.021 41.6074 103.54 41.6074C103.14 41.6074 102.939 41.0195 102.138 37.3897L95.0053 5.73134C94.3651 2.90216 93.8436 2.10149 92.802 1.56817C92.2818 1.30067 91.2798 1.24759 90.9987 1.24759C90.7994 1.24759 90.6383 1.19437 90.6383 0.873797C90.6383 0.60644 90.8785 0.5 91.2798 0.5C93.3631 0.5 95.5663 0.65966 96.0073 0.65966C96.3677 0.65966 98.1314 0.5 100.134 0.5C100.695 0.5 100.856 0.65966 100.856 0.873797C100.856 1.19437 100.656 1.24759 100.455 1.24759C100.134 1.24759 99.3723 1.24759 98.8917 1.56817C98.6516 1.72769 98.3717 2.15471 98.3717 2.84894C98.3717 3.54331 98.7321 5.41216 99.132 7.75984C99.7341 11.177 103.902 30.7696 104.502 33.5987H104.582L113.075 3.16826C113.677 0.980236 113.837 0.714137 114.079 0.714137C114.359 0.714137 114.599 1.40711 115.081 3.22274L123.053 33.4923Z" fill="#E59F4B"/>
<path d="M141.534 28.1628C141.534 32.3574 141.534 35.8073 141.698 37.6419C141.796 38.9093 141.993 39.8696 142.976 40.0442C143.435 40.1315 144.157 40.2188 144.451 40.2188C144.648 40.2188 144.714 40.3497 144.714 40.482C144.714 40.7003 144.55 40.8312 144.189 40.8312C142.386 40.8312 140.321 40.7003 140.157 40.7003C139.993 40.7003 137.929 40.8312 136.945 40.8312C136.584 40.8312 136.42 40.7427 136.42 40.482C136.42 40.3497 136.486 40.2188 136.683 40.2188C136.978 40.2188 137.371 40.1315 137.666 40.0442C138.321 39.8696 138.486 38.9093 138.616 37.6419C138.781 35.8073 138.781 32.3574 138.781 28.1628V20.4761C138.781 13.6624 138.781 12.4401 138.715 11.0419C138.65 9.55633 138.321 8.81432 137.6 8.59599C137.24 8.46371 136.814 8.42139 136.584 8.42139C136.453 8.42139 136.322 8.33269 136.322 8.15948C136.322 7.89617 136.486 7.80887 136.846 7.80887C137.929 7.80887 139.993 7.94129 140.157 7.94129C140.321 7.94129 142.386 7.80887 143.37 7.80887C143.729 7.80887 143.895 7.89617 143.895 8.15948C143.895 8.33269 143.764 8.42139 143.632 8.42139C143.402 8.42139 143.207 8.46371 142.812 8.55241C141.927 8.7706 141.665 9.51275 141.6 11.0419C141.534 12.4401 141.534 13.6624 141.534 20.4761V28.1628Z" fill="#E59F4B"/>
<path d="M154.154 28.2515C154.154 34.6724 154.286 37.4673 154.876 38.253C155.4 38.9529 156.252 39.2585 158.809 39.2585C160.545 39.2585 161.988 39.2148 162.774 37.9476C163.202 37.2491 163.529 36.1565 163.627 35.3271C163.66 34.9779 163.726 34.7583 163.922 34.7583C164.086 34.7583 164.119 34.9343 164.119 35.4144C164.119 35.8946 163.89 38.515 163.627 39.7823C163.399 40.7862 163.3 40.9622 161.563 40.9622C156.841 40.9622 154.678 40.7003 152.777 40.7003C152.483 40.7003 150.548 40.8312 149.565 40.8312C149.204 40.8312 149.04 40.7426 149.04 40.482C149.04 40.3497 149.105 40.2188 149.303 40.2188C149.598 40.2188 149.991 40.1315 150.286 40.0442C150.941 39.8696 151.105 38.9093 151.236 37.6419C151.4 35.8073 151.4 32.3574 151.4 28.1628V20.4761C151.4 13.6624 151.4 12.4401 151.335 11.0419C151.269 9.55633 151.007 8.8579 149.926 8.55241C149.662 8.46371 149.105 8.42139 148.81 8.42139C148.679 8.42139 148.548 8.33269 148.548 8.15948C148.548 7.89617 148.712 7.80887 149.072 7.80887C150.548 7.80887 152.614 7.94129 152.777 7.94129C152.941 7.94129 155.334 7.80887 156.317 7.80887C156.678 7.80887 156.841 7.89617 156.841 8.15948C156.841 8.33269 156.71 8.42139 156.579 8.42139C156.35 8.42139 155.891 8.46371 155.498 8.55241C154.548 8.7706 154.286 9.51275 154.219 11.0419C154.154 12.4401 154.154 13.6624 154.154 20.4761V28.2515Z" fill="#E59F4B"/>
<path d="M193.385 35.1962C193.516 36.7676 193.746 39.2148 195.154 39.8259C196.107 40.2188 196.959 40.2188 197.287 40.2188C197.448 40.2188 197.549 40.2624 197.549 40.437C197.549 40.7003 197.254 40.8312 196.858 40.8312C196.14 40.8312 192.599 40.7003 191.387 40.568C190.63 40.482 190.467 40.3497 190.467 40.1315C190.467 39.9569 190.535 39.8696 190.696 39.8259C190.862 39.7823 190.892 39.0402 190.83 38.253L189.254 15.7153H189.159L181.126 38.4277C180.438 40.3497 180.34 40.7427 180.042 40.7427C179.816 40.7427 179.652 40.3061 179.03 38.7347C178.178 36.5943 175.357 29.0372 175.193 28.6007C174.899 27.8136 171.227 17.3317 170.866 16.1518H170.738L169.424 36.4184C169.392 37.1181 169.392 37.9038 169.392 38.646C169.392 39.3021 169.752 39.8696 170.244 40.0005C170.803 40.1751 171.295 40.2188 171.489 40.2188C171.622 40.2188 171.751 40.3061 171.751 40.437C171.751 40.7426 171.557 40.8312 171.161 40.8312C169.949 40.8312 168.376 40.7003 168.114 40.7003C167.819 40.7003 166.244 40.8312 165.359 40.8312C165.031 40.8312 164.802 40.7426 164.802 40.437C164.802 40.3061 164.966 40.2188 165.13 40.2188C165.392 40.2188 165.621 40.2188 166.113 40.0878C167.197 39.8259 167.295 38.1236 167.426 36.4634L169.785 7.98348C169.853 7.50338 169.949 7.19775 170.145 7.19775C170.342 7.19775 170.476 7.37236 170.637 7.85259L180.665 35.3271L190.305 7.89617C190.434 7.50338 190.568 7.19775 190.797 7.19775C191.026 7.19775 191.124 7.54696 191.19 8.37641L193.385 35.1962Z" fill="#E59F4B"/>
<path d="M201.609 20.4761C201.609 13.6624 201.609 12.4401 201.543 11.0419C201.48 9.55633 201.216 8.8579 200.134 8.55241C199.872 8.46371 199.315 8.42139 199.02 8.42139C198.889 8.42139 198.758 8.33269 198.758 8.15948C198.758 7.89617 198.922 7.80887 199.283 7.80887C200.757 7.80887 202.824 7.94129 202.988 7.94129C203.214 7.94129 209.739 7.94129 210.496 7.89617C211.115 7.85259 211.64 7.76529 211.905 7.67799C212.066 7.63426 212.199 7.45966 212.36 7.45966C212.461 7.45966 212.494 7.63426 212.494 7.85259C212.494 8.15948 212.328 8.6833 212.232 9.90554C212.199 10.3421 212.131 12.2641 212.066 12.7893C212.036 13.0075 211.97 13.2694 211.836 13.2694C211.64 13.2694 211.574 13.0512 211.574 12.7006C211.574 12.3964 211.541 11.653 211.378 11.1292C211.148 10.4308 210.821 9.90554 209.051 9.64363C208.494 9.55633 204.921 9.51275 204.56 9.51275C204.429 9.51275 204.363 9.64363 204.363 9.95052V22.0052C204.363 22.3108 204.396 22.4417 204.56 22.4417C204.986 22.4417 209.019 22.4417 209.772 22.3544C210.559 22.2671 211.017 22.1798 211.312 21.7433C211.541 21.3941 211.672 21.1745 211.803 21.1745C211.905 21.1745 211.97 21.2632 211.97 21.5251C211.97 21.787 211.803 22.529 211.708 23.9708C211.64 24.8439 211.574 26.4604 211.574 26.7659C211.574 27.1151 211.574 27.5954 211.345 27.5954C211.181 27.5954 211.115 27.4208 211.115 27.2024C211.115 26.7659 211.115 26.3294 210.984 25.762C210.853 25.1509 210.559 24.4073 209.281 24.2327C208.396 24.1019 205.15 24.0145 204.593 24.0145C204.429 24.0145 204.363 24.1454 204.363 24.32V28.1628C204.363 29.6497 204.331 34.7159 204.363 35.6327C204.462 38.646 204.953 39.2148 208.167 39.2148C209.019 39.2148 210.46 39.2148 211.312 38.7347C212.164 38.253 212.56 37.38 212.789 35.589C212.855 35.1089 212.917 34.9343 213.084 34.9343C213.28 34.9343 213.28 35.2835 213.28 35.589C213.28 35.9382 213.018 38.9093 212.855 39.8259C212.622 40.9622 212.36 40.9622 211.083 40.9622C206.133 40.9622 203.938 40.7003 202.988 40.7003C202.824 40.7003 200.757 40.8312 199.774 40.8312C199.414 40.8312 199.25 40.7426 199.25 40.482C199.25 40.3497 199.315 40.2188 199.512 40.2188C199.807 40.2188 200.2 40.1315 200.495 40.0442C201.15 39.8696 201.314 38.9093 201.445 37.6419C201.609 35.8073 201.609 32.3574 201.609 28.1628V20.4761Z" fill="#E59F4B"/>
<path d="M219.8 20.4761C219.8 13.6624 219.8 12.4401 219.735 11.0419C219.669 9.55633 219.407 8.8579 218.326 8.55241C218.064 8.46371 217.507 8.42139 217.212 8.42139C217.081 8.42139 216.95 8.33269 216.95 8.15948C216.95 7.89617 217.111 7.80887 217.471 7.80887C218.949 7.80887 221.013 7.94129 221.176 7.94129C221.537 7.94129 224.03 7.80887 225.045 7.80887C227.109 7.80887 229.307 8.07218 231.046 9.73093C231.863 10.5181 233.307 12.6583 233.307 15.6716C233.307 18.9046 232.291 22.1362 229.34 25.762C232.026 30.3481 234.257 34.2359 236.157 36.9435C237.926 39.4331 239.338 39.9132 240.157 40.0878C240.78 40.2188 241.238 40.2188 241.435 40.2188C241.599 40.2188 241.73 40.3497 241.73 40.482C241.73 40.7427 241.533 40.8312 240.943 40.8312H238.617C236.78 40.8312 235.961 40.613 235.109 40.0005C233.7 38.9952 232.553 36.8562 230.683 33.5796C229.307 31.1775 227.767 28.2515 227.109 27.1151C226.978 26.9405 226.88 26.8532 226.683 26.8532L222.651 26.7659C222.49 26.7659 222.421 26.8969 222.421 27.1151V28.1628C222.421 32.3574 222.421 35.8073 222.588 37.6419C222.684 38.9093 222.883 39.8696 223.866 40.0442C224.324 40.1315 225.045 40.2188 225.34 40.2188C225.537 40.2188 225.602 40.3497 225.602 40.482C225.602 40.7003 225.438 40.8312 225.078 40.8312C223.276 40.8312 221.209 40.7003 221.045 40.7003C221.013 40.7003 218.948 40.8312 217.963 40.8312C217.605 40.8312 217.439 40.7427 217.439 40.482C217.439 40.3497 217.507 40.2188 217.701 40.2188C217.996 40.2188 218.392 40.1315 218.686 40.0442C219.342 39.8696 219.506 38.9093 219.637 37.6419C219.8 35.8073 219.8 32.3574 219.8 28.1628V20.4761ZM222.421 24.2765C222.421 24.4946 222.49 24.6693 222.651 24.8003C223.145 25.1931 224.652 25.5001 226.096 25.5001C226.88 25.5001 227.8 25.3677 228.554 24.6693C229.7 23.6216 230.552 21.2632 230.552 17.9429C230.552 12.4823 228.39 9.20712 224.881 9.20712C223.898 9.20712 223.011 9.33814 222.684 9.46903C222.522 9.55633 222.421 9.73093 222.421 9.99284V24.2765Z" fill="#E59F4B"/>
<path d="M242.713 20.4761C242.713 13.6624 242.713 12.4401 242.647 11.0419C242.582 9.55633 242.32 8.8579 241.238 8.55241C240.976 8.46371 240.416 8.42139 240.124 8.42139C239.993 8.42139 239.862 8.33269 239.862 8.15948C239.862 7.89617 240.026 7.80887 240.387 7.80887C241.861 7.80887 243.925 7.94129 244.092 7.94129C244.482 7.94129 246.549 7.80887 248.517 7.80887C251.761 7.80887 257.759 7.41608 261.661 12.7893C263.299 15.0605 264.841 18.685 264.841 23.8835C264.841 29.3864 263.135 33.6233 261.3 36.2001C259.891 38.1657 256.94 41.2241 251.368 41.2241C248.55 41.2241 244.419 40.7003 244.092 40.7003C243.925 40.7003 241.861 40.8312 240.878 40.8312C240.518 40.8312 240.354 40.7427 240.354 40.482C240.354 40.3497 240.416 40.2188 240.616 40.2188C240.911 40.2188 241.304 40.1315 241.599 40.0442C242.254 39.8696 242.418 38.9093 242.549 37.6419C242.713 35.8073 242.713 32.3574 242.713 28.1628V20.4761ZM245.467 25.1931C245.467 29.8229 245.5 33.8415 245.533 34.6724C245.566 35.7636 245.631 37.511 245.893 37.9911C246.319 38.822 247.597 39.7386 251.466 39.7386C254.513 39.7386 257.333 38.253 259.266 35.6763C260.973 33.4487 261.89 29.2554 261.89 25.2368C261.89 19.6903 260.085 16.1081 258.745 14.2298C255.659 9.90554 251.925 9.29442 248.023 9.29442C247.368 9.29442 246.155 9.42544 245.893 9.60005C245.599 9.77466 245.5 9.99284 245.5 10.4731C245.467 11.9585 245.467 16.4137 245.467 19.7776V25.1931Z" fill="#E59F4B"/>
<path d="M273.726 28.1628C273.726 32.3574 273.726 35.8073 273.889 37.6419C273.988 38.9093 274.184 39.8696 275.17 40.0442C275.629 40.1315 276.349 40.2188 276.644 40.2188C276.841 40.2188 276.906 40.3497 276.906 40.482C276.906 40.7003 276.743 40.8312 276.382 40.8312C274.58 40.8312 272.513 40.7003 272.35 40.7003C272.186 40.7003 270.122 40.8312 269.136 40.8312C268.776 40.8312 268.612 40.7427 268.612 40.482C268.612 40.3497 268.677 40.2188 268.874 40.2188C269.169 40.2188 269.562 40.1315 269.859 40.0442C270.512 39.8696 270.679 38.9093 270.807 37.6419C270.973 35.8073 270.973 32.3574 270.973 28.1628V20.4761C270.973 13.6624 270.973 12.4401 270.908 11.0419C270.842 9.55633 270.512 8.81432 269.791 8.59599C269.431 8.46371 269.005 8.42139 268.776 8.42139C268.645 8.42139 268.514 8.33269 268.514 8.15948C268.514 7.89617 268.677 7.80887 269.038 7.80887C270.122 7.80887 272.186 7.94129 272.35 7.94129C272.513 7.94129 274.58 7.80887 275.56 7.80887C275.923 7.80887 276.087 7.89617 276.087 8.15948C276.087 8.33269 275.956 8.42139 275.825 8.42139C275.596 8.42139 275.399 8.46371 275.003 8.55241C274.119 8.7706 273.857 9.51275 273.791 11.0419C273.726 12.4401 273.726 13.6624 273.726 20.4761V28.1628Z" fill="#E59F4B"/>
<path d="M284.477 34.8906C284.543 38.4728 284.87 39.6077 285.755 39.9569C286.378 40.1751 287.101 40.2188 287.396 40.2188C287.56 40.2188 287.658 40.3061 287.658 40.482C287.658 40.7426 287.459 40.8312 287.066 40.8312C285.198 40.8312 283.888 40.7003 283.593 40.7003C283.298 40.7003 281.919 40.8312 280.445 40.8312C280.117 40.8312 279.921 40.7862 279.921 40.482C279.921 40.3061 280.019 40.2188 280.183 40.2188C280.445 40.2188 281.034 40.1751 281.526 39.9569C282.348 39.6513 282.509 38.3841 282.509 34.4091L282.544 9.38172C282.544 7.67799 282.643 7.19775 282.905 7.19775C283.167 7.19775 283.724 8.15948 284.051 8.59599C284.543 9.33814 289.427 16.37 294.475 23.578C297.719 28.2078 301.293 33.536 302.344 34.9779L301.981 12.7893C301.951 9.95052 301.719 8.98893 300.703 8.63972C300.113 8.46371 299.36 8.42139 299.098 8.42139C298.868 8.42139 298.836 8.2905 298.836 8.1145C298.836 7.85259 299.098 7.80887 299.491 7.80887C300.965 7.80887 302.541 7.94129 302.901 7.94129C303.259 7.94129 304.343 7.80887 305.686 7.80887C306.049 7.80887 306.276 7.85259 306.276 8.1145C306.276 8.2905 306.145 8.42139 305.915 8.42139C305.751 8.42139 305.525 8.42139 305.129 8.55241C304.048 8.8579 303.917 9.81824 303.917 12.4401L303.851 38.0349C303.851 40.9185 303.786 41.1354 303.556 41.1354C303.294 41.1354 302.901 40.6553 301.162 38.3403C300.804 37.9038 296.084 31.4831 292.608 26.504C288.805 21.0448 285.1 15.5407 284.051 13.9679L284.477 34.8906Z" fill="#E59F4B"/>
<path d="M328.399 29.6919C328.399 26.1534 328.235 25.6733 326.925 25.1931C326.662 25.1058 326.106 25.0622 325.811 25.0622C325.68 25.0622 325.548 24.9749 325.548 24.8003C325.548 24.5384 325.71 24.4511 326.073 24.4511C327.547 24.4511 329.611 24.5819 329.775 24.5819C329.941 24.5819 332.006 24.4511 332.988 24.4511C333.349 24.4511 333.513 24.5384 333.513 24.8003C333.513 24.9749 333.382 25.0622 333.251 25.0622C333.021 25.0622 332.825 25.1058 332.431 25.1931C331.544 25.4128 331.282 26.1534 331.216 27.6827C331.154 29.0808 331.154 30.3917 331.154 32.2265V37.1181C331.154 39.0839 331.121 39.1712 330.725 39.4767C328.628 40.9622 325.68 41.4423 323.777 41.4423C321.284 41.4423 316.629 41.0046 312.992 36.7676C310.993 34.454 309.091 29.7792 309.091 24.32C309.091 17.3317 311.646 12.3964 314.565 9.95052C317.516 7.50338 320.76 7.19775 323.285 7.19775C325.349 7.19775 327.678 7.76529 328.301 7.94129C328.989 8.15948 330.135 8.33269 330.954 8.37641C331.282 8.42139 331.35 8.59599 331.35 8.7706C331.35 9.38172 331.121 10.604 331.121 14.9732C331.121 15.6716 331.055 15.8899 330.826 15.8899C330.662 15.8899 330.629 15.628 330.597 15.2351C330.561 14.6227 330.397 13.4005 329.906 12.3514C329.087 10.6927 326.433 8.81432 322.204 8.81432C320.137 8.81432 317.68 9.07623 315.187 11.6966C313.287 13.7059 311.944 17.681 311.944 22.7909C311.944 28.9499 314.27 33.405 315.419 34.8906C318.008 38.253 320.989 39.564 324.006 39.564C325.185 39.564 326.892 39.3021 327.741 38.646C328.169 38.3403 328.399 37.8603 328.399 37.1181V29.6919Z" fill="#E59F4B"/>
<path d="M252.563 69.6502L260.032 62.6591L260.039 56.6645H334.261L323.334 63.3378L334.018 70.011H252.563V69.6502Z" fill="#E4A039"/>
<path d="M252.563 68.9524L259.536 62.4476L259.535 56.1755H336L324.265 63.3425L335.724 70.5H252.563V68.9524ZM253.453 69.5219H332.311L322.403 63.3329L332.522 57.1535H260.543L260.528 62.8706L253.453 69.5219Z" fill="black"/>
<path d="M83.8864 69.5846L76.4525 62.6584L76.445 56.6304H1.73842L12.6663 63.305L2.22446 69.9783H83.8864V69.5846Z" fill="#E4A039"/>
<path d="M83.8857 70.4673H0.551467L11.7435 63.3146L0 56.1414H76.9514L76.9495 62.4463L83.8829 68.8829L83.8857 70.4673ZM3.89746 69.4892H83.0263L75.9556 62.8706L75.9385 57.1194H3.47697L13.5892 63.2955L3.89746 69.4892Z" fill="black"/>
<path d="M36.5232 62.316C35.9514 62.3311 35.8612 62.436 35.8311 62.6162H35.726V61.4129H35.8311C35.8311 61.5331 35.913 61.578 36.0196 61.578C36.1779 61.578 36.5383 61.4198 36.5383 61.2248C36.5383 61.1115 36.4482 61.0365 36.343 61.0365V60.9314H37.8188V61.0365C37.6523 61.0365 37.5922 61.1264 37.5922 61.3066V66.0305C37.5922 66.212 37.6523 66.3019 37.8188 66.3019V66.4069H36.298V66.3019C36.4632 66.3019 36.5232 66.212 36.5232 66.0305V62.316Z" fill="white"/>
<path d="M50.2319 63.4141C49.6981 63.3227 49.4414 62.8644 49.4414 62.3896C49.4414 61.2397 50.7957 60.8564 51.8195 60.8564C52.8433 60.8564 54.199 61.2397 54.199 62.3896C54.199 62.8644 53.9423 63.3227 53.4085 63.4141V63.4291C54.0474 63.5642 54.5307 64.0594 54.5307 64.7523C54.5307 66.0755 53.0017 66.482 51.8195 66.482C50.6387 66.482 49.1097 66.0755 49.1097 64.7523C49.1097 64.0594 49.5917 63.5642 50.2319 63.4291V63.4141ZM51.8195 61.7444C50.969 61.7444 50.4803 61.9095 50.4803 62.4047C50.4803 62.9025 50.969 63.0676 51.8195 63.0676C52.67 63.0676 53.1601 62.9025 53.1601 62.4047C53.1601 61.9095 52.67 61.7444 51.8195 61.7444ZM51.8195 63.8943C50.8571 63.8943 50.1786 64.2258 50.1786 64.7742C50.1786 65.3238 50.8571 65.5954 51.8195 65.5954C52.7833 65.5954 53.4603 65.3238 53.4603 64.7742C53.4603 64.2258 52.7833 63.8943 51.8195 63.8943Z" fill="white"/>
<path d="M282.072 64.8506L282.17 64.9024C282.162 64.9256 282.148 64.9556 282.148 64.9924C282.148 65.4208 283.298 65.5954 283.615 65.5954C284.72 65.5954 285.37 65.1137 285.46 63.9407C284.895 64.429 284.278 64.5859 283.697 64.5859C282.375 64.5859 281.335 63.9857 281.335 62.7743C281.335 61.3829 282.613 60.8564 283.825 60.8564C285.444 60.8564 286.528 61.8863 286.528 63.601C286.528 65.3157 285.46 66.482 283.666 66.482C282.989 66.482 282.539 66.3537 282.239 66.2337C281.935 66.1138 281.794 66.0005 281.717 66.0005C281.657 66.0005 281.627 66.0454 281.605 66.0686L281.507 66.0386L282.072 64.8506ZM283.833 61.7444C282.932 61.7444 282.405 62.1496 282.405 62.7211C282.405 63.3991 282.932 63.6992 283.833 63.6992C284.737 63.6992 285.264 63.2927 285.264 62.7211C285.264 62.1196 284.737 61.7444 283.833 61.7444Z" fill="white"/>
<path d="M296.332 63.2477V63.1427C296.398 63.1358 296.474 63.0826 296.474 62.9463V61.2029C296.474 61.0815 296.308 61.0365 296.217 61.0365V60.9314H300.673C300.81 60.9314 300.93 60.8933 300.93 60.7964H301.034V62.0746H300.93C300.93 61.9464 300.81 61.8795 300.673 61.8795H297.512V62.9312C298 62.7144 298.519 62.6011 299.054 62.6011C300.447 62.6011 301.44 63.4441 301.44 64.4822C301.44 65.8422 300.215 66.482 298.926 66.482C297.007 66.482 296.57 65.6704 296.376 65.6704C296.321 65.6704 296.278 65.7071 296.256 65.7291L296.157 65.6621L296.985 64.5572L297.075 64.6391C297.061 64.6623 297.061 64.6992 297.061 64.7224C297.061 64.9855 297.542 65.5954 298.934 65.5954C299.892 65.5954 300.373 65.1137 300.373 64.4659C300.373 63.8342 299.709 63.4878 298.986 63.4878C298.159 63.4878 297.52 63.8792 297.52 64.0594C297.52 64.0975 297.528 64.1276 297.542 64.1657L297.457 64.2639L296.332 63.2477Z" fill="white"/>
<path d="M76.445 48.3066H260.039V62.3815H76.445V48.3066Z" fill="#E4A039"/>
<path d="M260.528 62.8706L75.9556 62.8706L75.9556 47.8176H260.528L260.528 62.8706ZM76.9344 61.8925H259.55V48.7956H76.9344V61.8925Z" fill="black"/>
<path d="M99.1197 54.9007V53.0946C99.1197 52.9296 99.0897 52.8695 98.8931 52.8695V52.7645H100.399V52.8695C100.227 52.8695 100.189 52.9296 100.189 53.0946V57.9085C100.189 58.075 100.227 58.135 100.399 58.135V58.24H98.8931V58.135C99.0897 58.135 99.1197 58.075 99.1197 57.9085V55.8473H95.7329V57.9085C95.7329 58.075 95.7697 58.135 95.9513 58.135V58.24H94.4388V58.135C94.6339 58.135 94.664 58.075 94.664 57.9085V53.0946C94.664 52.9296 94.6339 52.8695 94.4388 52.8695V52.7645H95.9513V52.8695C95.7697 52.8695 95.7329 52.9296 95.7329 53.0946V54.9007H99.1197Z" fill="white"/>
<path d="M111.435 57.9085C111.435 58.075 111.473 58.135 111.713 58.135V58.24H110.095V58.135C110.336 58.135 110.366 58.075 110.366 57.9085V53.0946C110.366 52.9296 110.336 52.8695 110.095 52.8695V52.7645H111.713V52.8695C111.473 52.8695 111.435 52.9296 111.435 53.0946V57.9085Z" fill="white"/>
<path d="M127.452 55.3523V55.4573C127.377 55.4723 127.308 55.5323 127.308 55.6973V57.1788C127.308 57.3002 127.346 57.3452 127.445 57.367V57.472C126.97 57.7436 125.811 58.3151 124.508 58.3151C122.777 58.3151 121.257 57.4571 121.257 55.5023C121.257 53.5462 123.033 52.6895 124.599 52.6895C125.216 52.6895 125.802 52.8314 126.232 52.9677C126.631 53.1409 126.925 53.276 126.977 53.276C127.045 53.276 127.113 53.2379 127.143 53.1929L127.248 53.2379L126.518 54.471L126.413 54.4041C126.42 54.3742 126.428 54.3291 126.428 54.2759C126.428 54.0427 125.614 53.5762 124.613 53.5762C123.349 53.5762 122.326 54.2009 122.326 55.4723C122.326 56.8036 123.349 57.4284 124.508 57.4284C125.457 57.4284 126.014 57.1038 126.239 56.9387V56.3153H124.945C124.794 56.3153 124.704 56.3889 124.704 56.4953H124.599V55.1708H124.704C124.704 55.2759 124.794 55.3523 124.945 55.3523H127.452Z" fill="white"/>
<path d="M141.672 54.9007V53.0946C141.672 52.9296 141.642 52.8695 141.446 52.8695V52.7645H142.951V52.8695C142.778 52.8695 142.741 52.9296 142.741 53.0946V57.9085C142.741 58.075 142.778 58.135 142.951 58.135V58.24H141.446V58.135C141.642 58.135 141.672 58.075 141.672 57.9085V55.8473H138.285V57.9085C138.285 58.075 138.322 58.135 138.504 58.135V58.24H136.99V58.135C137.186 58.135 137.215 58.075 137.215 57.9085V53.0946C137.215 52.9296 137.186 52.8695 136.99 52.8695V52.7645H138.504V52.8695C138.322 52.8695 138.285 52.9296 138.285 53.0946V54.9007H141.672Z" fill="white"/>
<path d="M165.608 54.3742L165.49 54.3059C165.496 54.2759 165.504 54.2391 165.504 54.2009C165.504 54.1041 164.797 53.5762 163.57 53.5762C162.396 53.5762 161.891 53.9377 161.891 54.4041C161.891 55.6374 166.326 53.8327 166.326 56.5554C166.326 57.5484 165.359 58.3151 163.435 58.3151C161.598 58.3151 161.069 57.7285 160.897 57.7285C160.852 57.7285 160.829 57.7653 160.792 57.7885L160.695 57.7653L161.318 56.4872L161.439 56.5472C161.439 56.5786 161.424 56.6072 161.424 56.6673C161.424 57.1119 162.396 57.4284 163.358 57.4284C164.728 57.4284 165.195 57.0369 165.195 56.6222C165.195 55.1489 160.822 56.9768 160.822 54.4793C160.822 53.2161 162.153 52.6895 163.614 52.6895C164.925 52.6895 165.842 53.2611 165.932 53.2611C166.031 53.2611 166.047 53.231 166.069 53.2078L166.189 53.246L165.608 54.3742Z" fill="white"/>
<path d="M180.916 54.4192L180.804 54.3591C180.81 54.3141 180.81 54.2759 180.81 54.2391C180.81 54.0577 179.9 53.5762 178.961 53.5762C177.763 53.5762 176.687 54.1178 176.687 55.5023C176.687 56.8855 177.763 57.4284 179.051 57.4284C180.094 57.4284 180.993 56.8419 180.993 56.5022C180.993 56.4653 180.976 56.3971 180.963 56.3671L181.036 56.3153L181.812 57.4202L181.752 57.4502C181.73 57.4353 181.683 57.4284 181.661 57.4284C181.435 57.4284 180.856 58.3151 178.961 58.3151C177.282 58.3151 175.619 57.4802 175.619 55.5023C175.619 53.7426 177.17 52.6895 179.013 52.6895C180.337 52.6895 181.225 53.276 181.383 53.276C181.457 53.276 181.503 53.2692 181.555 53.1861L181.661 53.2228L180.916 54.4192Z" fill="white"/>
<path d="M195.987 54.9007V53.0946C195.987 52.9296 195.957 52.8695 195.76 52.8695V52.7645H197.268V52.8695C197.096 52.8695 197.055 52.9296 197.055 53.0946V57.9085C197.055 58.075 197.096 58.135 197.268 58.135V58.24H195.76V58.135C195.957 58.135 195.987 58.075 195.987 57.9085V55.8473H192.599V57.9085C192.599 58.075 192.64 58.135 192.817 58.135V58.24H191.305V58.135C191.501 58.135 191.531 58.075 191.531 57.9085V53.0946C191.531 52.9296 191.501 52.8695 191.305 52.8695V52.7645H192.817V52.8695C192.64 52.8695 192.599 52.9296 192.599 53.0946V54.9007H195.987Z" fill="white"/>
<path d="M212.999 55.5023C212.999 57.322 211.599 58.3151 209.86 58.3151C208.12 58.3151 206.72 57.322 206.72 55.5023C206.72 53.6825 208.12 52.6895 209.86 52.6895C211.599 52.6895 212.999 53.6825 212.999 55.5023ZM207.79 55.5023C207.79 56.7586 208.716 57.4284 209.86 57.4284C211.003 57.4284 211.929 56.7586 211.929 55.5023C211.929 54.246 211.003 53.5762 209.86 53.5762C208.716 53.5762 207.79 54.246 207.79 55.5023Z" fill="white"/>
<path d="M228.57 55.5023C228.57 57.322 227.169 58.3151 225.43 58.3151C223.691 58.3151 222.293 57.322 222.293 55.5023C222.293 53.6825 223.691 52.6895 225.43 52.6895C227.169 52.6895 228.57 53.6825 228.57 55.5023ZM223.361 55.5023C223.361 56.7586 224.286 57.4284 225.43 57.4284C226.574 57.4284 227.502 56.7586 227.502 55.5023C227.502 54.246 226.574 53.5762 225.43 53.5762C224.286 53.5762 223.361 54.246 223.361 55.5023Z" fill="white"/>
<path d="M238.033 58.135C238.2 58.135 238.23 58.075 238.23 57.9085V53.0946C238.23 52.9296 238.2 52.8695 238.033 52.8695V52.7645H239.524V52.8695C239.33 52.8695 239.3 52.9296 239.3 53.0946V57.352H242.775C242.956 57.352 243.032 57.292 243.032 57.172H243.136V58.4051H243.032C243.032 58.3001 242.956 58.24 242.775 58.24H238.033V58.135Z" fill="white"/>
<path d="M83.8864 62.3815H76.445L83.8864 69.5697V62.3815Z" fill="black"/>
<path d="M252.562 62.3815H260.078L252.563 69.6426L252.562 62.3815Z" fill="black"/>
</svg>
